<svg width="26" height="26" viewBox="0 0 26 26" fill="none" xmlns="http://www.w3.org/2000/svg">
<path d="M16.0977 7.47236H21.1631V8.70127H16.0977V7.47236ZM11.0221 12.3347C12.1418 11.7989 12.7283 10.9839 12.7283 9.72451C12.7283 7.23369 10.8748 6.62939 8.73438 6.62939H2.84375V19.1317H8.89941C11.1693 19.1317 13.2996 18.0399 13.2996 15.5009C13.2996 13.9317 12.5582 12.7714 11.0221 12.3347ZM5.59102 8.76221H8.16816C9.16094 8.76221 10.0521 9.03896 10.0521 10.1917C10.0521 11.253 9.35898 11.6796 8.37637 11.6796H5.59102V8.76221ZM8.52363 17.0091H5.58848V13.5661H8.58203C9.79063 13.5661 10.5549 14.0714 10.5549 15.3511C10.5549 16.6104 9.64336 17.0091 8.52363 17.0091ZM23.1436 14.7366C23.1436 12.0579 21.577 9.82607 18.7434 9.82607C15.9885 9.82607 14.1146 11.9005 14.1146 14.6198C14.1146 17.4382 15.8895 19.3729 18.7434 19.3729C20.9041 19.3729 22.3031 18.4005 22.976 16.3261H20.7848C20.5461 17.1005 19.5762 17.5067 18.8221 17.5067C17.3646 17.5067 16.6029 16.6536 16.6029 15.2038H23.1258C23.1334 15.054 23.1436 14.8966 23.1436 14.7366ZM16.6029 13.6347C16.6816 12.4438 17.4764 11.6999 18.6646 11.6999C19.9139 11.6999 20.5385 12.4337 20.6477 13.6347H16.6029Z" fill="black"/>
</svg>
