<svg width="1060" height="84" viewBox="0 0 1060 84" fill="none" xmlns="http://www.w3.org/2000/svg">
<path d="M67.344 65V0.967995H51.504L34.032 43.112L16.656 0.967995H0.816V65H12.048V17.48L31.632 65H36.432L56.112 17.48V65H67.344ZM122.06 65V18.632H111.98V51.176C109.58 54.344 105.164 57.224 100.076 57.224C94.4123 57.224 90.7643 55.016 90.7643 47.816V18.632H80.6843V51.464C80.6843 60.968 85.5803 66.152 95.5643 66.152C102.86 66.152 108.62 62.6 111.98 58.856V65H122.06ZM176.625 65V32.168C176.625 22.664 171.633 17.48 161.649 17.48C154.353 17.48 148.305 21.32 145.233 24.968V0.967995H135.153V65H145.233V32.648C147.633 29.48 152.049 26.408 157.137 26.408C162.801 26.408 166.545 28.616 166.545 35.816V65H176.625ZM228.116 65V34.28C228.116 21.8 219.092 17.48 208.82 17.48C201.428 17.48 194.708 19.88 189.332 24.968L193.46 31.976C197.492 28.04 202.004 26.12 207.188 26.12C213.62 26.12 218.036 29.384 218.036 34.76V41.672C214.676 37.736 209.3 35.72 203.06 35.72C195.476 35.72 186.932 40.136 186.932 50.792C186.932 61.064 195.476 66.152 203.06 66.152C209.204 66.152 214.58 63.944 218.036 60.008V65H228.116ZM206.996 59.24C201.332 59.24 197.108 55.976 197.108 50.984C197.108 45.896 201.332 42.632 206.996 42.632C211.411 42.632 215.732 44.264 218.036 47.432V54.44C215.732 57.608 211.411 59.24 206.996 59.24ZM308.096 65V31.496C308.096 22.088 303.296 17.48 294.752 17.48C287.84 17.48 281.696 21.8 279.008 26.024C277.472 20.936 273.248 17.48 266.336 17.48C259.328 17.48 253.184 22.088 251.264 24.968V18.632H241.184V65H251.264V32.648C253.376 29.576 257.504 26.408 261.92 26.408C267.392 26.408 269.6 29.768 269.6 34.76V65H279.68V32.552C281.696 29.576 285.92 26.408 290.432 26.408C295.808 26.408 298.016 29.768 298.016 34.76V65H308.096ZM388.065 65V31.496C388.065 22.088 383.265 17.48 374.721 17.48C367.809 17.48 361.665 21.8 358.977 26.024C357.441 20.936 353.217 17.48 346.305 17.48C339.297 17.48 333.153 22.088 331.233 24.968V18.632H321.153V65H331.233V32.648C333.345 29.576 337.473 26.408 341.889 26.408C347.361 26.408 349.569 29.768 349.569 34.76V65H359.649V32.552C361.665 29.576 365.889 26.408 370.401 26.408C375.777 26.408 377.985 29.768 377.985 34.76V65H388.065ZM439.522 65V34.28C439.522 21.8 430.498 17.48 420.226 17.48C412.834 17.48 406.114 19.88 400.738 24.968L404.866 31.976C408.898 28.04 413.41 26.12 418.594 26.12C425.026 26.12 429.442 29.384 429.442 34.76V41.672C426.082 37.736 420.706 35.72 414.466 35.72C406.882 35.72 398.338 40.136 398.338 50.792C398.338 61.064 406.882 66.152 414.466 66.152C420.61 66.152 425.986 63.944 429.442 60.008V65H439.522ZM418.402 59.24C412.738 59.24 408.514 55.976 408.514 50.984C408.514 45.896 412.738 42.632 418.402 42.632C422.818 42.632 427.138 44.264 429.442 47.432V54.44C427.138 57.608 422.818 59.24 418.402 59.24ZM495.311 65V0.967995H485.231V25.064C481.487 20.168 476.111 17.48 470.351 17.48C458.351 17.48 449.711 26.888 449.711 41.864C449.711 57.128 458.447 66.152 470.351 66.152C476.303 66.152 481.679 63.272 485.231 58.664V65H495.311ZM473.231 57.224C465.263 57.224 460.174 50.792 460.174 41.864C460.174 32.84 465.263 26.408 473.231 26.408C478.031 26.408 482.927 29.192 485.231 32.648V51.08C482.927 54.536 478.031 57.224 473.231 57.224ZM582.852 65L567.204 39.848C574.884 38.6 582.372 32.456 582.372 21.032C582.372 9.224 574.116 0.967995 561.444 0.967995H533.316V65H544.548V41.096H555.684L569.892 65H582.852ZM559.908 31.208H544.548V10.856H559.908C566.244 10.856 570.852 14.888 570.852 21.032C570.852 27.176 566.244 31.208 559.908 31.208ZM611.811 66.152C619.203 66.152 626.019 63.848 630.627 59.432L626.019 52.808C622.755 56.072 617.379 57.896 612.867 57.896C604.131 57.896 598.851 52.136 598.083 45.128H633.891V42.728C633.891 28.136 624.963 17.48 611.043 17.48C597.315 17.48 587.523 28.328 587.523 41.768C587.523 56.456 597.891 66.152 611.811 66.152ZM624.099 38.024H597.987C598.467 32.36 602.403 25.736 611.043 25.736C620.163 25.736 623.907 32.552 624.099 38.024ZM678.497 65V56.264H654.977L678.113 26.024V18.632H641.729V27.464H664.673L641.729 57.416V65H678.497ZM727.897 65V34.28C727.897 21.8 718.873 17.48 708.601 17.48C701.209 17.48 694.489 19.88 689.113 24.968L693.241 31.976C697.273 28.04 701.785 26.12 706.969 26.12C713.401 26.12 717.817 29.384 717.817 34.76V41.672C714.457 37.736 709.081 35.72 702.841 35.72C695.257 35.72 686.713 40.136 686.713 50.792C686.713 61.064 695.257 66.152 702.841 66.152C708.985 66.152 714.361 63.944 717.817 60.008V65H727.897ZM706.777 59.24C701.113 59.24 696.889 55.976 696.889 50.984C696.889 45.896 701.113 42.632 706.777 42.632C711.193 42.632 715.513 44.264 717.817 47.432V54.44C715.513 57.608 711.193 59.24 706.777 59.24ZM787.798 66.152C805.078 66.152 812.566 57.032 812.566 46.376C812.566 22.472 775.318 29.864 775.318 17.96C775.318 13.16 779.542 9.992 786.166 9.992C792.886 9.992 799.702 12.296 804.694 17.288L811.126 8.936C805.174 3.17599 797.11 0.00799561 787.126 0.00799561C773.11 0.00799561 763.798 8.168 763.798 18.728C763.798 42.344 801.142 33.992 801.142 47.432C801.142 51.656 797.494 56.168 788.278 56.168C779.35 56.168 772.438 52.04 768.022 47.336L761.782 55.976C767.446 62.024 775.99 66.152 787.798 66.152ZM819.668 83.144C821.108 83.528 823.892 83.816 825.332 83.816C832.532 83.72 838.1 81.224 841.268 73.352L863.636 18.632H852.788L839.252 53.384L825.716 18.632H814.964L833.972 65.576L831.668 70.856C830.324 73.928 828.212 74.888 825.044 74.888C823.892 74.888 822.26 74.6 821.204 74.12L819.668 83.144ZM908.366 65V34.28C908.366 21.8 899.342 17.48 889.07 17.48C881.678 17.48 874.958 19.88 869.582 24.968L873.71 31.976C877.742 28.04 882.254 26.12 887.438 26.12C893.87 26.12 898.286 29.384 898.286 34.76V41.672C894.926 37.736 889.55 35.72 883.31 35.72C875.726 35.72 867.182 40.136 867.182 50.792C867.182 61.064 875.726 66.152 883.31 66.152C889.454 66.152 894.83 63.944 898.286 60.008V65H908.366ZM887.246 59.24C881.582 59.24 877.358 55.976 877.358 50.984C877.358 45.896 881.582 42.632 887.246 42.632C891.661 42.632 895.982 44.264 898.286 47.432V54.44C895.982 57.608 891.661 59.24 887.246 59.24ZM931.514 65V33.416C933.53 30.152 939.194 27.272 943.418 27.272C944.666 27.272 945.722 27.368 946.586 27.56V17.576C940.538 17.576 934.97 21.032 931.514 25.448V18.632H921.434V65H931.514ZM959.708 12.968C963.164 12.968 965.948 10.184 965.948 6.72799C965.948 3.272 963.164 0.487995 959.708 0.487995C956.348 0.487995 953.468 3.272 953.468 6.72799C953.468 10.184 956.348 12.968 959.708 12.968ZM964.796 65V18.632H954.716V65H964.796ZM999.28 66.152C1006.67 66.152 1013.49 63.848 1018.1 59.432L1013.49 52.808C1010.22 56.072 1004.85 57.896 1000.34 57.896C991.6 57.896 986.32 52.136 985.552 45.128H1021.36V42.728C1021.36 28.136 1012.43 17.48 998.512 17.48C984.784 17.48 974.992 28.328 974.992 41.768C974.992 56.456 985.36 66.152 999.28 66.152ZM1011.57 38.024H985.456C985.936 32.36 989.872 25.736 998.512 25.736C1007.63 25.736 1011.38 32.552 1011.57 38.024ZM1043.79 65V27.464H1053.2V18.632H1043.79V16.04C1043.79 10.856 1046.29 8.264 1050.22 8.264C1052.53 8.264 1054.25 9.032 1055.6 10.28L1059.53 4.04C1056.65 1.064 1052.53 0.00799561 1048.4 0.00799561C1039.57 0.00799561 1033.71 5.96 1033.71 16.04V18.632H1026.03V27.464H1033.71V65H1043.79Z" fill="url(#paint0_linear_3_11)"/>
<defs>
<linearGradient id="paint0_linear_3_11" x1="-25.1246" y1="68.4728" x2="1054.42" y2="35.9884" gradientUnits="userSpaceOnUse">
<stop stop-color="#9845E8"/>
<stop offset="0.549502" stop-color="#33D2FF"/>
<stop offset="1" stop-color="#DD5789"/>
</linearGradient>
</defs>
</svg>
